<?xml version="1.0" encoding="UTF-8"?>
<svg version="1.1" xmlns="http://www.w3.org/2000/svg" width="1137" height="219">
<path d="M0 0 C1.4387146 -0.00422974 1.4387146 -0.00422974 2.90649414 -0.00854492 C3.96731201 -0.00652069 5.02812988 -0.00449646 6.12109375 -0.00241089 C7.23154053 -0.00416321 8.3419873 -0.00591553 9.48608398 -0.00772095 C13.17693621 -0.01214208 16.86774099 -0.00920055 20.55859375 -0.00582886 C23.11067718 -0.00650182 25.66276054 -0.00747178 28.21484375 -0.00872803 C33.57162137 -0.01020536 38.9283818 -0.00814391 44.28515625 -0.00338745 C50.4864309 0.00205514 56.68767268 0.00029247 62.88894653 -0.00521386 C68.8439359 -0.01029073 74.79891502 -0.00976343 80.75390625 -0.00683212 C83.2929688 -0.00616259 85.83203217 -0.00699218 88.37109375 -0.00931168 C91.91278339 -0.01183666 95.45440892 -0.00799978 98.99609375 -0.00241089 C100.05691162 -0.00443512 101.11772949 -0.00645935 102.21069336 -0.00854492 C103.16983643 -0.0057251 104.12897949 -0.00290527 105.1171875 0 C105.95564209 0.00037703 106.79409668 0.00075405 107.65795898 0.0011425 C109.55859375 0.12698364 109.55859375 0.12698364 110.55859375 1.12698364 C110.68452573 4.06062638 110.74727441 6.96944043 110.76171875 9.90432739 C110.76741882 10.78601089 110.7731189 11.6676944 110.7789917 12.57609558 C110.7884558 14.44485264 110.79498126 16.3136265 110.79882812 18.18240356 C110.80854125 21.04899012 110.83955403 23.91486222 110.87109375 26.78128052 C110.87762267 28.5931252 110.88287358 30.40497503 110.88671875 32.21682739 C110.89906555 33.07831894 110.91141235 33.93981049 110.9241333 34.82740784 C110.91503906 37.243927 110.91503906 37.243927 110.55859375 41.12698364 C106.99305415 43.50401004 105.47988014 43.37039287 101.2512207 43.35403442 C99.29953728 43.35380783 99.29953728 43.35380783 97.3084259 43.35357666 C95.88790738 43.34336334 94.46739042 43.33293134 93.046875 43.32229614 C91.59384862 43.31856547 90.14081972 43.31571876 88.68778992 43.3137207 C84.86547893 43.30608846 81.04332021 43.28644356 77.22106934 43.26431274 C72.63389991 43.24024625 68.04667954 43.23107138 63.45946503 43.21940613 C56.49240208 43.20001882 49.52567313 43.1616937 42.55859375 43.12698364 C42.55859375 55.00698364 42.55859375 66.88698364 42.55859375 79.12698364 C49.34550781 79.09217896 49.34550781 79.09217896 56.26953125 79.05667114 C59.13151613 79.04645521 61.99347862 79.03682753 64.85546875 79.02932739 C69.40076348 79.01735968 73.94597784 79.00318366 78.49121094 78.97610474 C82.15460721 78.95441543 85.81791732 78.94242333 89.48137283 78.93722916 C90.88085919 78.93352633 92.2803407 78.92629587 93.6797905 78.91552353 C95.63592706 78.90106139 97.59214984 78.90016717 99.54833984 78.89993286 C101.22046036 78.89327103 101.22046036 78.89327103 102.92636108 78.88647461 C105.55859375 79.12698364 105.55859375 79.12698364 107.55859375 81.12698364 C107.74635542 84.12833977 107.81409557 87.0358551 107.7890625 90.03713989 C107.78860428 90.91978012 107.78814606 91.80242035 107.78767395 92.71180725 C107.78465062 94.57881005 107.77676192 96.44581031 107.7644043 98.31277466 C107.74614601 101.18127303 107.74389459 104.04944886 107.74414062 106.91799927 C107.73922563 108.72854895 107.73339739 110.53909644 107.7265625 112.34963989 C107.72544968 113.21315567 107.72433685 114.07667145 107.72319031 114.96635437 C107.6746399 121.01093749 107.6746399 121.01093749 106.55859375 122.12698364 C104.56427645 122.22103506 102.56659832 122.24441614 100.57006836 122.24050903 C99.28881577 122.2404335 98.00756317 122.24035797 96.68748474 122.24028015 C95.27863527 122.23517274 93.86978619 122.22995673 92.4609375 122.22463989 C91.02747141 122.22277566 89.59400468 122.22135178 88.16053772 122.22035217 C84.38099418 122.21652736 80.60148885 122.20669741 76.82196045 122.19564819 C72.29071594 122.18363844 67.75945868 122.17903165 63.22820282 122.17319489 C56.33830653 122.16348562 49.44849413 122.14432885 42.55859375 122.12698364 C42.55859375 134.00698364 42.55859375 145.88698364 42.55859375 158.12698364 C46.5840403 158.93207295 49.65933293 159.23999272 53.6940918 159.20877075 C54.90852463 159.20223984 56.12295746 159.19570892 57.37419128 159.1889801 C58.67641129 159.17754471 59.97863129 159.16610931 61.3203125 159.15432739 C62.67600659 159.14737822 64.03170466 159.14116884 65.3874054 159.13566589 C71.13180061 159.11126785 76.8760872 159.07548478 82.62036133 159.03103638 C86.14037689 159.00430029 89.66033146 158.98723011 93.18042946 158.97616768 C95.17361353 158.96692798 97.1667358 158.94654553 99.15983582 158.92604065 C100.96730034 158.92097252 100.96730034 158.92097252 102.8112793 158.915802 C104.4074836 158.90461586 104.4074836 158.90461586 106.03593445 158.89320374 C108.55859375 159.12698364 108.55859375 159.12698364 110.55859375 161.12698364 C110.80388956 163.70277749 110.93201168 166.17927371 110.97265625 168.75979614 C110.9920224 169.51163177 111.01138855 170.26346741 111.03134155 171.03808594 C111.09118522 173.44260263 111.13754101 175.84716708 111.18359375 178.25198364 C111.22176921 179.88091092 111.26082068 181.50981793 111.30078125 183.13870239 C111.39689041 187.1346317 111.48090316 191.13065551 111.55859375 195.12698364 C113.51242746 194.90197926 113.51242746 194.90197926 115.55859375 194.12698364 C116.69560712 192.56595886 116.69560712 192.56595886 117.390625 190.51760864 C117.70555908 189.72120972 118.02049316 188.92481079 118.3449707 188.10427856 C118.68359131 187.20427124 119.02221191 186.30426392 119.37109375 185.37698364 C120.17245573 183.33633564 120.97459562 181.29599301 121.77734375 179.25588989 C122.44056641 177.54876831 122.44056641 177.54876831 123.1171875 175.80715942 C125.50259835 169.71676594 127.97576875 163.6622305 130.44058228 157.6036377 C131.39150859 155.26426102 132.34002712 152.92392146 133.2878418 150.58328247 C138.14425875 138.59176447 143.03258155 126.61342725 147.92755127 114.63760376 C155.03731344 97.24236953 162.11469826 79.8345291 169.14672852 62.40771484 C170.48163989 59.10029501 171.81781308 55.7933875 173.15429688 52.48660278 C176.68596433 43.74533026 180.21669506 35.00398559 183.69746399 26.24229431 C184.91242236 23.18576693 186.13372064 20.13179693 187.35598755 17.07818604 C188.1581714 15.0657603 188.9501914 13.04953675 189.74194336 11.0329895 C190.20995361 9.86517944 190.67796387 8.69736938 191.16015625 7.49417114 C191.55541504 6.49498657 191.95067383 5.495802 192.35791016 4.46633911 C193.55859375 2.12698364 193.55859375 2.12698364 196.55859375 0.12698364 C199.56908676 -0.08156344 202.48480919 -0.17702623 205.49609375 -0.17379761 C206.37257568 -0.17808273 207.24905762 -0.18236786 208.15209961 -0.18678284 C210.00471126 -0.19252432 211.85734546 -0.19302773 213.70996094 -0.18869019 C216.54791577 -0.18552825 219.38483019 -0.20899796 222.22265625 -0.23434448 C224.0221341 -0.23661726 225.82161476 -0.23732107 227.62109375 -0.23629761 C228.4711499 -0.24550735 229.32120605 -0.2547171 230.19702148 -0.26420593 C236.14054006 -0.21739853 236.14054006 -0.21739853 238.23985291 1.51196289 C239.91050294 3.55795585 240.69311667 5.52494125 241.625 7.99807739 C242.0183252 9.02368774 242.41165039 10.0492981 242.81689453 11.10598755 C243.46247314 12.81794312 243.46247314 12.81794312 244.12109375 14.56448364 C245.10636559 17.12429502 246.09403447 19.68302932 247.0859375 22.24026489 C247.48945435 23.28238129 247.48945435 23.28238129 247.90112305 24.34555054 C251.53701649 33.69816709 255.37041558 42.97063999 259.18359375 52.25198364 C260.75323893 56.07724426 262.3220517 59.90284589 263.890625 63.72854614 C264.28224823 64.68352493 264.67387146 65.63850372 265.07736206 66.62242126 C269.03542015 76.27977359 272.95805229 85.95131911 276.87109375 95.62698364 C277.20963379 96.46366577 277.54817383 97.3003479 277.89697266 98.16238403 C281.81691587 107.85103802 285.72746716 117.54344487 289.62974548 127.23922729 C291.51695388 131.92761111 293.40584483 136.61531639 295.29476929 141.30300903 C296.6453529 144.6570172 297.99325437 148.01209456 299.34106445 151.36721802 C303.90347922 162.70244903 308.56271482 173.97535781 313.55859375 185.12698364 C315.07984259 180.26223691 315.93728721 175.76906038 316.38061523 170.66409302 C316.47623749 169.59608459 316.47623749 169.59608459 316.5737915 168.50650024 C316.78215939 166.16175862 316.98090012 163.81630525 317.1796875 161.47073364 C317.32594824 159.80616758 317.47285766 158.1416584 317.62037659 156.47720337 C318.00819427 152.083786 318.38806411 147.68971852 318.76599121 143.29544067 C319.36288515 136.37337087 319.97276372 129.45242361 320.58024788 122.5312767 C320.80530911 119.96364198 321.02932206 117.39591715 321.25328064 114.82818604 C322.15197364 104.5544798 323.10830271 94.28851814 324.12109375 84.02542114 C325.12334823 73.8597207 326.03993336 63.6906181 326.875 53.50979614 C326.9790062 52.24468201 327.08301239 50.97956787 327.19017029 49.67611694 C327.60961508 44.55459201 328.02665862 39.43289821 328.4362793 34.31057739 C328.74363185 30.48067463 329.05874171 26.65147236 329.375 22.82229614 C329.46463516 21.67544342 329.55427032 20.5285907 329.6466217 19.34698486 C331.0421246 2.6434528 331.0421246 2.6434528 333.55859375 0.12698364 C335.0156638 0.0183883 336.4779038 -0.02203752 337.93896484 -0.03414917 C338.87018158 -0.04375671 339.80139832 -0.05336426 340.76083374 -0.06326294 C341.77432892 -0.06751282 342.7878241 -0.0717627 343.83203125 -0.07614136 C345.38405746 -0.08469147 345.38405746 -0.08469147 346.96743774 -0.09341431 C349.1615496 -0.10288068 351.35567578 -0.10940476 353.54980469 -0.11325073 C356.91236102 -0.12295508 360.27430608 -0.15396292 363.63671875 -0.18551636 C365.76431927 -0.19204612 367.89192418 -0.1972967 370.01953125 -0.20114136 C371.53370132 -0.21966156 371.53370132 -0.21966156 373.07846069 -0.23855591 C374.48474228 -0.23405426 374.48474228 -0.23405426 375.91943359 -0.22946167 C377.15734146 -0.23493011 377.15734146 -0.23493011 378.42025757 -0.24050903 C381.12328745 0.22403143 381.9120452 0.96043347 383.55859375 3.12698364 C384.537323 5.09849548 384.537323 5.09849548 385.40185547 7.38406372 C385.90159126 8.68678474 385.90159126 8.68678474 386.41142273 10.01582336 C386.9444677 11.44176567 386.9444677 11.44176567 387.48828125 12.89651489 C387.87139969 13.90108231 388.25451813 14.90564972 388.64924622 15.94065857 C389.48146216 18.12539317 390.31001126 20.31152723 391.13534546 22.49887085 C392.89140528 27.15277405 394.66467903 31.80005337 396.43699646 36.44778442 C397.36788663 38.88949587 398.29785248 41.33155988 399.22694397 43.7739563 C404.03870663 56.42045472 408.93295228 69.03451961 413.84161377 81.64367676 C415.23490481 85.22323768 416.62612252 88.8035993 418.01708984 92.38406372 C418.86803974 94.57185622 419.7191076 96.75960284 420.5703125 98.94729614 C420.96104446 99.9531929 421.35177643 100.95908966 421.75434875 101.99546814 C422.11087021 102.91043564 422.46739166 103.82540314 422.8347168 104.76809692 C423.30049385 105.96512741 423.30049385 105.96512741 423.77568054 107.18634033 C424.54204961 109.16064717 424.54204961 109.16064717 425.55859375 111.12698364 C428.75255729 105.00465843 431.34685006 98.79409542 433.796875 92.34182739 C434.19484787 91.30368393 434.59282074 90.26554047 435.00285339 89.19593811 C436.29600211 85.82020256 437.58353617 82.4423552 438.87109375 79.06448364 C439.76520693 76.72789784 440.65974176 74.39147334 441.5546875 72.0552063 C443.36076105 67.33912376 445.16487772 62.62230053 446.96728516 57.90481567 C450.33536551 49.0916123 453.71889729 40.28437102 457.10629272 31.47857666 C458.03444656 29.06478181 458.96132942 26.65050234 459.88793945 24.2361145 C460.9727392 21.40983378 462.06218193 18.58543063 463.15625 15.76272583 C464.03187931 13.49255317 464.89587793 11.21781911 465.7421875 8.93655396 C466.25458984 7.58062134 466.25458984 7.58062134 466.77734375 6.19729614 C467.05513672 5.44464478 467.33292969 4.69199341 467.61914062 3.91653442 C468.55859375 2.12698364 468.55859375 2.12698364 471.55859375 0.12698364 C473.69692993 -0.12025452 473.69692993 -0.12025452 476.19775391 -0.11593628 C477.13527496 -0.11901291 478.07279602 -0.12208954 479.03872681 -0.1252594 C480.04817352 -0.11807388 481.05762024 -0.11088837 482.09765625 -0.10348511 C483.13425385 -0.10302689 484.17085144 -0.10256866 485.23886108 -0.10209656 C487.42943466 -0.09907532 489.62000612 -0.09119286 491.81054688 -0.0788269 C495.17716005 -0.06055128 498.54349861 -0.05831735 501.91015625 -0.05856323 C504.03515865 -0.05364883 506.16015917 -0.04782085 508.28515625 -0.04098511 C509.80539902 -0.03931587 509.80539902 -0.03931587 511.35635376 -0.03761292 C512.75317886 -0.02804314 512.75317886 -0.02804314 514.17822266 -0.01828003 C515.00190338 -0.01446823 515.82558411 -0.01065643 516.67422485 -0.00672913 C518.55859375 0.12698364 518.55859375 0.12698364 519.55859375 1.12698364 C519.82049325 2.7657242 520.02051582 4.41439459 520.19577026 6.06465149 C520.31071398 7.13505582 520.42565769 8.20546015 520.54408455 9.30830097 C520.66601614 10.49523139 520.78794773 11.68216181 520.91357422 12.90505981 C521.04417173 14.15248805 521.17476925 15.39991629 521.30932426 16.68514538 C522.91520285 32.16683615 524.28304159 47.67126891 525.65685129 63.17490792 C526.03643852 67.45336469 526.41867545 71.73158494 526.80050659 76.00984192 C527.43921287 83.17072467 528.07595932 90.3317795 528.71142578 97.49295044 C529.44228301 105.72886598 530.17612204 113.9645117 530.91156209 122.20001918 C531.62595015 130.20038186 532.33842612 138.20091369 533.04998398 146.20152855 C533.35001398 149.57477117 533.65065773 152.94795821 533.95181656 156.32110023 C534.30634279 160.29311572 534.65916433 164.26527929 535.010746 168.23755646 C535.1387606 169.68101949 535.26731866 171.12443446 535.39650726 172.56779289 C536.24756051 182.08152777 536.96069945 191.59451346 537.55859375 201.12698364 C535.24438646 202.28408729 533.89974279 202.25951701 531.32421875 202.27224731 C530.44991211 202.27862717 529.57560547 202.28500702 528.67480469 202.2915802 C527.72895508 202.29269302 526.78310547 202.29380585 525.80859375 202.29495239 C524.83954102 202.29828079 523.87048828 202.30160919 522.87207031 202.30503845 C520.82096838 202.31010634 518.76985819 202.31244682 516.71875 202.31228638 C513.57147746 202.31447468 510.4245543 202.33263688 507.27734375 202.35159302 C505.28776162 202.35452653 503.29817782 202.35651161 501.30859375 202.35745239 C499.88981934 202.36823067 499.88981934 202.36823067 498.44238281 202.37922668 C497.13092285 202.37461174 497.13092285 202.37461174 495.79296875 202.36990356 C494.63619629 202.37204109 494.63619629 202.37204109 493.45605469 202.3742218 C491.55859375 202.12698364 491.55859375 202.12698364 489.55859375 200.12698364 C489.14426066 197.05779314 488.84919899 194.0554686 488.62890625 190.97073364 C488.55379822 190.02099167 488.47869019 189.07124969 488.40130615 188.09272766 C488.1537496 184.93806591 487.91888644 181.78258173 487.68359375 178.62698364 C487.51284014 176.43265428 487.34111451 174.23840035 487.16845703 172.04421997 C486.71466728 166.25451303 486.27071017 160.46409728 485.8293457 154.6734314 C485.12691616 145.47264944 484.41166924 136.27288922 483.68792725 127.07376099 C483.43837098 123.87570367 483.19569373 120.67717682 482.95361328 117.47854614 C482.21740038 107.94211011 481.46749686 98.51472332 479.55859375 89.12698364 C479.08570923 90.47832397 479.08570923 90.47832397 478.60327148 91.85696411 C477.06917006 96.23920718 475.53303567 100.62073605 473.99609375 105.00198364 C473.70914642 105.81997437 473.4221991 106.63796509 473.1265564 107.48074341 C468.11105497 121.7707485 463.02749445 136.03571298 457.91564941 150.29150391 C454.71532775 159.21927438 451.52875859 168.15011067 448.45703125 177.12307739 C448.10371986 178.15466476 448.10371986 178.15466476 447.74327087 179.20709229 C446.66343676 182.36540463 445.59087786 185.52587414 444.52661133 188.68948364 C443.97589966 190.3117688 443.97589966 190.3117688 443.4140625 191.96682739 C442.94456177 193.36469482 442.94456177 193.36469482 442.46557617 194.790802 C441.55859375 197.12698364 441.55859375 197.12698364 439.55859375 200.12698364 C436.76123047 200.46755981 436.76123047 200.46755981 433.23828125 200.41995239 C431.98144531 200.41028442 430.72460938 200.40061646 429.4296875 200.39065552 C428.11097656 200.3655188 426.79226563 200.34038208 425.43359375 200.31448364 C424.09376472 200.29943847 422.75391971 200.28574977 421.4140625 200.27346802 C418.12850533 200.23801236 414.84374793 200.18859213 411.55859375 200.12698364 C402.20870277 177.0156334 394.30664813 153.31639611 386.22973633 129.73757935 C384.10256296 123.54350966 381.93806247 117.36522426 379.71484375 111.20510864 C379.48080841 110.55561249 379.24677307 109.90611633 379.00564575 109.23693848 C377.87876939 106.11199588 376.74611848 102.98944101 375.60498047 99.86965942 C375.20553223 98.76606079 374.80608398 97.66246216 374.39453125 96.52542114 C374.0392334 95.55266235 373.68393555 94.57990356 373.31787109 93.57766724 C372.55859375 91.12698364 372.55859375 91.12698364 372.55859375 88.12698364 C371.89859375 88.12698364 371.23859375 88.12698364 370.55859375 88.12698364 C370.50448837 89.33267502 370.450383 90.53836639 370.39463806 91.78059387 C369.82247636 104.09076246 368.99293123 116.36375451 368 128.64651489 C367.8492205 130.5292973 367.69850054 132.41208447 367.5478363 134.2948761 C367.2348852 138.19490594 366.91936867 142.09471857 366.60229492 145.99441528 C366.19750724 150.97882541 365.8022166 155.96394189 365.40910435 160.94928455 C365.10250853 164.81790976 364.78949075 168.68599591 364.47468376 172.5539608 C364.32606121 174.39289532 364.17974925 176.23201818 364.03586006 178.07132912 C363.83477558 180.63320474 363.62466442 183.19419109 363.41235352 185.75515747 C363.35565994 186.50273315 363.29896637 187.25030884 363.24055481 188.02053833 C362.26624149 199.4193359 362.26624149 199.4193359 359.55859375 202.12698364 C356.81070935 202.24345678 354.08762295 202.29499682 351.33862305 202.3039856 C350.47683441 202.31055679 349.61504578 202.31712799 348.72714233 202.32389832 C345.86236495 202.34368183 342.9976401 202.35530518 340.1328125 202.36526489 C339.15682413 202.36934042 338.18083576 202.37341595 337.17527199 202.37761497 C332.00950963 202.39849743 326.843774 202.41278962 321.67797852 202.42214966 C316.33439269 202.43321782 310.99122289 202.46761624 305.64778423 202.50732136 C301.5463024 202.53343358 297.44492046 202.5418367 293.34336281 202.54543114 C291.37334191 202.55031119 289.40332589 202.5619653 287.43338585 202.58046913 C284.67750236 202.60474575 281.92270511 202.60391666 279.16674805 202.59695435 C277.94235268 202.61616943 277.94235268 202.61616943 276.69322205 202.63577271 C273.15018183 202.60309666 271.01413051 202.46375423 268.12355042 200.32679749 C266.72084619 198.35505715 265.73100739 196.72284528 264.91113281 194.45999146 C264.65116516 193.75956726 264.39119751 193.05914307 264.12335205 192.3374939 C263.85963806 191.59255676 263.59592407 190.84761963 263.32421875 190.08010864 C263.04132996 189.30890686 262.75844116 188.53770508 262.46697998 187.74313354 C261.57036093 185.29142238 260.68931611 182.83444434 259.80859375 180.37698364 C259.20154181 178.70864304 258.59347982 177.04066959 257.984375 175.37307739 C256.49738256 171.29520578 255.02432742 167.21254206 253.55859375 163.12698364 C244.07520403 162.97330133 234.59174917 162.82511966 225.10816383 162.68402004 C220.70487375 162.61833241 216.30163026 162.55072822 211.8984375 162.47879028 C207.65156258 162.40947597 203.40463912 162.34513556 199.15763474 162.28428841 C197.53484725 162.26015563 195.9120857 162.23421049 194.28935623 162.20644951 C192.02188424 162.16796384 189.75440676 162.1358404 187.48681641 162.10525513 C186.19442047 162.08526962 184.90202454 162.06528412 183.57046509 162.04469299 C180.6352056 161.91258678 180.6352056 161.91258678 178.55859375 163.12698364 C177.5094064 165.43620148 177.5094064 165.43620148 176.5703125 168.27151489 C176.00473633 169.8773645 176.00473633 169.8773645 175.42773438 171.51565552 C175.03779297 172.6455188 174.64785156 173.77538208 174.24609375 174.93948364 C171.92438688 181.6119189 169.57040153 188.26290835 166.953125 194.82620239 C166.37268433 196.28352783 166.37268433 196.28352783 165.78051758 197.77029419 C164.55859375 200.12698364 164.55859375 200.12698364 161.55859375 202.12698364 C158.59976006 202.37587261 158.59976006 202.37587261 154.90255737 202.3742218 C154.22282997 202.37663622 153.54310257 202.37905063 152.84277737 202.38153821 C150.56028964 202.38718361 148.27808073 202.37850597 145.99560547 202.36990356 C144.36133752 202.37097622 142.72706995 202.37291466 141.09280396 202.37565613 C136.65086991 202.38050949 132.20903609 202.37284324 127.76711416 202.36270308 C123.12575993 202.3539331 118.48440893 202.35567981 113.8430481 202.35606384 C106.05013344 202.35512689 98.25725769 202.34643769 90.46435547 202.33279419 C81.44216746 202.31705733 72.42002205 202.31179644 63.39782131 202.31252974 C54.73149769 202.31313909 46.065188 202.30804287 37.39886856 202.29973793 C33.70429501 202.29619865 30.00972638 202.29437377 26.31515121 202.29384422 C21.96990513 202.29284309 17.62469511 202.28676544 13.27946091 202.27667809 C11.6802238 202.27374601 10.08098255 202.27252914 8.48174286 202.27310562 C6.3080106 202.27359287 4.13438088 202.2679749 1.96066284 202.26069641 C0.13167859 202.25818264 0.13167859 202.25818264 -1.73425484 202.2556181 C-4.44140625 202.12698364 -4.44140625 202.12698364 -5.44140625 201.12698364 C-5.54140082 198.549486 -5.57581426 195.99871871 -5.56838989 193.42068481 C-5.56994988 192.60382548 -5.57150987 191.78696615 -5.57311714 190.94535351 C-5.57713057 188.18686854 -5.57393618 185.42843785 -5.57080078 182.66995239 C-5.57215467 180.70100878 -5.57393453 178.73206543 -5.57611084 176.76312256 C-5.58068665 171.39964304 -5.57889501 166.03618266 -5.57573175 160.67270279 C-5.57320891 155.07307125 -5.57554548 149.47344141 -5.57711792 143.87380981 C-5.57893984 134.46828923 -5.57653273 125.06277648 -5.57177734 115.65725708 C-5.56633468 104.76627188 -5.56809732 93.87530539 -5.57360375 82.98432064 C-5.57813425 73.6518764 -5.57878574 64.31943782 -5.57616508 54.98699284 C-5.57460196 49.4051031 -5.5744095 43.82322218 -5.57770157 38.24133301 C-5.58057937 32.99490859 -5.57860628 27.74850842 -5.57280731 22.50208664 C-5.57147922 20.57066259 -5.57187465 18.63923652 -5.57406998 16.70781326 C-5.57677957 14.08294162 -5.57340271 11.458149 -5.56838989 8.83328247 C-5.57062061 8.05868777 -5.57285134 7.28409307 -5.57514966 6.48602581 C-5.55092886 0.00249607 -5.55092886 0.00249607 0 0 Z M215.55859375 66.12698364 C210.2761236 79.2227537 205.04502963 92.33841285 199.93359375 105.50198364 C199.49611816 106.61815063 199.05864258 107.73431763 198.60791016 108.88430786 C198.20749512 109.92087524 197.80708008 110.95744263 197.39453125 112.02542114 C197.0392334 112.93984985 196.68393555 113.85427856 196.31787109 114.79641724 C195.40371067 117.19386824 195.40371067 117.19386824 195.55859375 120.12698364 C209.08859375 120.12698364 222.61859375 120.12698364 236.55859375 120.12698364 C235.67420306 114.79208569 235.67420306 114.79208569 234.0625 109.86135864 C233.75586426 109.06568481 233.44922852 108.27001099 233.13330078 107.45022583 C232.79927246 106.60105591 232.46524414 105.75188599 232.12109375 104.87698364 C231.40080772 103.02290785 230.68076792 101.16873638 229.9609375 99.31448364 C229.38255127 97.83141724 229.38255127 97.83141724 228.79248047 96.31838989 C227.46587833 92.88717834 226.16831609 89.44587309 224.875 86.00198364 C224.42761475 84.81765747 223.98022949 83.6333313 223.51928711 82.41311646 C222.63639342 80.07573167 221.75821417 77.7365601 220.88500977 75.39553833 C220.48080811 74.33238403 220.07660645 73.26922974 219.66015625 72.17385864 C219.30260254 71.22349731 218.94504883 70.27313599 218.57666016 69.29397583 C217.75703457 66.96813108 217.75703457 66.96813108 215.55859375 66.12698364 Z " fill="#ED7D37" transform="translate(369.44140625,7.873016357421875)"/>
<path d="M0 0 C1.00146057 0.00142502 2.00292114 0.00285004 3.034729 0.00431824 C4.17061462 0.00124161 5.30650024 -0.00183502 6.47680664 -0.00500488 C7.71311829 0.00218063 8.94942993 0.00936615 10.22320557 0.01676941 C12.13350555 0.01745674 12.13350555 0.01745674 14.08239746 0.01815796 C16.78946043 0.02118648 19.49618686 0.02802094 22.20318604 0.04142761 C25.63205487 0.05821362 29.06077616 0.06224772 32.48968124 0.06148243 C35.79670817 0.06182458 39.10368935 0.07070369 42.41070557 0.07926941 C43.62272644 0.08038223 44.83474731 0.08149506 46.08349609 0.0826416 C79.73199221 0.26554211 107.00467272 9.18610582 131.13922119 33.33610535 C149.86208886 52.86828407 157.18061096 78.55888327 156.76226807 105.10661316 C156.10977834 128.06141558 148.82110596 148.95268968 133.61383057 166.24723816 C132.97703369 167.01551941 132.34023682 167.78380066 131.68414307 168.57536316 C115.61098107 187.55331347 91.00573746 199.43439714 66.40118408 202.04412842 C60.40034911 202.48139912 54.38153271 202.41208212 48.36773682 202.41520691 C46.90565458 202.41842542 45.44357267 202.42178993 43.98149109 202.42529297 C40.9364853 202.43124483 37.89150776 202.43313654 34.84649658 202.43254089 C30.94018329 202.43243853 27.03404874 202.44618404 23.12777805 202.4633131 C20.11756042 202.47440245 17.10738678 202.47646119 14.0971508 202.47593117 C12.65580558 202.47711232 11.21445926 202.48154167 9.77313423 202.48926353 C7.76766413 202.49901747 5.76214097 202.49493311 3.75665283 202.49015808 C2.04530907 202.49229561 2.04530907 202.49229561 0.2993927 202.49447632 C-2.38616943 202.24723816 -2.38616943 202.24723816 -4.38616943 200.24723816 C-4.58373615 197.6310819 -4.65543662 195.12069083 -4.64013672 192.50334167 C-4.6432567 191.69450059 -4.64637668 190.8856595 -4.64959121 190.05230808 C-4.65760415 187.32684728 -4.65123481 184.60160709 -4.6449585 181.87614441 C-4.6476669 179.928379 -4.65122698 177.98061461 -4.65557861 176.03285217 C-4.66472284 170.73132711 -4.66115 165.42987959 -4.65482044 160.12835312 C-4.64977095 154.5905867 -4.65444896 149.05282709 -4.65759277 143.51506042 C-4.66123549 134.2138601 -4.65642531 124.91269149 -4.64691162 115.61149597 C-4.63602649 104.84489049 -4.63955186 94.07836074 -4.65056443 83.31175709 C-4.65962861 74.08203131 -4.66092685 64.85232839 -4.65568709 55.6225996 C-4.6525626 50.10384059 -4.65217116 44.58511722 -4.65876007 39.06636047 C-4.66452028 33.87898829 -4.66056102 28.69171412 -4.64897156 23.50435257 C-4.64631786 21.59592477 -4.64710208 19.68748877 -4.65149689 17.77906418 C-4.6569259 15.18297474 -4.65015066 12.58720355 -4.64013672 9.99113464 C-4.64459816 9.2279168 -4.64905961 8.46469896 -4.65365624 7.67835331 C-4.5994136 0.47655901 -4.5994136 0.47655901 0 0 Z M43.61383057 43.24723816 C43.59050079 58.22410122 43.572851 73.20096288 43.56201839 88.17784023 C43.5568556 95.13139896 43.54981323 102.08494643 43.53839111 109.03849792 C43.52738363 115.74281025 43.52155436 122.44710841 43.51895332 129.15143013 C43.51709854 131.71561429 43.51347693 134.27979778 43.50810051 136.84397697 C43.50089398 140.42168974 43.49983946 143.99935335 43.50030518 147.57707214 C43.4967099 148.6488118 43.49311462 149.72055145 43.4894104 150.82476807 C43.49078506 151.79377045 43.49215973 152.76277283 43.49357605 153.76113892 C43.49265426 154.60826667 43.49173246 155.45539442 43.49078274 156.32819271 C43.40228655 158.25583128 43.40228655 158.25583128 44.61383057 159.24723816 C59.60660479 160.59141792 74.72582712 156.39602365 86.50836182 146.91911316 C98.62058007 135.36983158 105.37339552 120.24520217 105.8994751 103.5533905 C106.12182266 86.52965253 101.6579183 71.81843792 89.85186768 59.34025574 C80.46688992 49.85723778 68.23831864 43.49028079 54.74664307 43.14958191 C53.41067022 43.1561308 52.07471348 43.16791018 50.73883057 43.18473816 C50.05047119 43.18924988 49.36211182 43.1937616 48.65289307 43.19841003 C46.97316721 43.2100748 45.29348681 43.22800545 43.61383057 43.24723816 Z " fill="#ECAC2E" transform="translate(15.38616943359375,7.7527618408203125)"/>
<path d="M0 0 C1.23542038 0.00142502 2.47084076 0.00285004 3.74369812 0.00431824 C4.76619911 0.00147072 4.76619911 0.00147072 5.80935669 -0.00143433 C8.0736374 -0.00515163 10.33759991 0.00558718 12.60185242 0.01676941 C14.18210818 0.0179623 15.76236466 0.01841414 17.34262085 0.01815796 C20.66581119 0.0197252 23.98889419 0.02802412 27.3120575 0.04142761 C31.53692991 0.0582654 35.76168264 0.06224627 39.98658466 0.06148243 C43.25804758 0.06175702 46.52948517 0.06728643 49.80093956 0.07448387 C51.3559926 0.07763261 52.91104846 0.0796289 54.46610451 0.08037758 C78.36831929 0.10444616 100.83918565 1.98809629 119.11357117 19.24723816 C129.73237867 30.52972113 134.02805881 45.1610139 134.42607117 60.43473816 C133.6693716 79.28916911 127.46066708 94.732127 113.90653992 107.87614441 C108.15042701 112.7628025 101.691605 117.12916759 94.11357117 118.24723816 C101.67681624 128.09648014 109.56492256 137.64587115 117.66874695 147.05241394 C121.46472415 151.46676223 125.16606059 155.95021338 128.83622742 160.46989441 C131.85610099 164.1527934 134.93970294 167.77963268 138.02568054 171.40715027 C140.95631693 174.85884561 143.83075308 178.34946339 146.67607117 181.87223816 C150.63682884 186.75693388 154.83545575 191.35936253 159.14482117 195.93473816 C161.11357117 198.24723816 161.11357117 198.24723816 162.11357117 201.24723816 C160.4053105 202.95549883 158.1824743 202.40114029 155.8469696 202.42424011 C154.72200073 202.43707535 153.59703186 202.44991058 152.43797302 202.46313477 C150.59903473 202.47421516 150.59903473 202.47421516 148.72294617 202.48551941 C147.47104492 202.49359116 146.21914368 202.5016629 144.92930603 202.50997925 C142.2727537 202.52384195 139.61632639 202.53485139 136.95976257 202.54240417 C133.56222724 202.55344928 130.1653504 202.58781952 126.76804733 202.62757587 C123.52391221 202.66006841 120.27971922 202.6645243 117.03544617 202.67301941 C115.81758423 202.6905275 114.59972229 202.70803558 113.34495544 202.72607422 C112.20737793 202.72314865 111.06980042 202.72022308 109.89775085 202.71720886 C108.40003143 202.72600822 108.40003143 202.72600822 106.87205505 202.73498535 C101.00406809 201.69742476 97.87293526 196.91113449 94.48857117 192.37223816 C93.61175999 191.20757823 92.73412678 190.04353681 91.85575867 188.88005066 C91.40555359 188.28095886 90.95534851 187.68186707 90.49150085 187.06462097 C88.23905038 184.0938128 85.92533726 181.17196326 83.61357117 178.24723816 C79.73942352 173.33174016 75.9023482 168.38984219 72.09403992 163.42301941 C67.91012674 157.97085755 63.68786495 152.54872713 59.46195984 147.1290741 C55.91935677 142.58196106 52.39620257 138.02028049 48.88310242 133.45036316 C48.42278625 132.85175476 47.96247009 132.25314636 47.48820496 131.63639832 C46.36322985 130.17341965 45.23838692 128.71033935 44.11357117 127.24723816 C44.1032637 128.1573465 44.09295624 129.06745483 44.08233643 130.00514221 C43.98448175 138.56938069 43.88198462 147.13354818 43.77423191 155.69766808 C43.71899606 160.10088445 43.665575 164.50410746 43.61625671 168.90739441 C43.56862293 173.1543886 43.51628048 177.40130072 43.46063042 181.64819717 C43.44020239 183.27093597 43.42149005 184.89369727 43.40449715 186.51647568 C43.38046301 188.78407197 43.35040723 191.05151258 43.31889343 193.3190155 C43.30334915 194.61141144 43.28780487 195.90380737 43.27178955 197.23536682 C43.11357117 200.24723816 43.11357117 200.24723816 42.11357117 202.24723816 C35.74153524 202.29783446 29.36955087 202.33292773 22.99736023 202.35710144 C20.82839522 202.36717605 18.65944385 202.38083614 16.49052429 202.39811707 C13.37785991 202.42230139 10.26537466 202.43370648 7.15263367 202.44255066 C6.17863617 202.45287323 5.20463867 202.4631958 4.2011261 202.47383118 C3.30034332 202.47398224 2.39956055 202.4741333 1.47148132 202.47428894 C0.27901291 202.48095078 0.27901291 202.48095078 -0.93754578 202.48774719 C-2.88642883 202.24723816 -2.88642883 202.24723816 -4.88642883 200.24723816 C-5.08399555 197.6310819 -5.15569602 195.12069083 -5.14039612 192.50334167 C-5.1435161 191.69450059 -5.14663608 190.8856595 -5.14985061 190.05230808 C-5.15786355 187.32684728 -5.15149421 184.60160709 -5.1452179 181.87614441 C-5.1479263 179.928379 -5.15148637 177.98061461 -5.15583801 176.03285217 C-5.16498224 170.73132711 -5.1614094 165.42987959 -5.15507984 160.12835312 C-5.15003035 154.5905867 -5.15470836 149.05282709 -5.15785217 143.51506042 C-5.16149489 134.2138601 -5.15668471 124.91269149 -5.14717102 115.61149597 C-5.13628589 104.84489049 -5.13981126 94.07836074 -5.15082383 83.31175709 C-5.15988801 74.08203131 -5.16118625 64.85232839 -5.15594649 55.6225996 C-5.152822 50.10384059 -5.15243056 44.58511722 -5.15901947 39.06636047 C-5.16477968 33.87898829 -5.16082042 28.69171412 -5.14923096 23.50435257 C-5.14657726 21.59592477 -5.14736148 19.68748877 -5.15175629 17.77906418 C-5.1571853 15.18297474 -5.15041006 12.58720355 -5.14039612 9.99113464 C-5.14485756 9.2279168 -5.14931901 8.46469896 -5.15391564 7.67835331 C-5.09937345 0.43678877 -5.09937345 0.43678877 0 0 Z M43.11357117 39.24723816 C43.08830279 46.20727263 43.07073895 53.16729536 43.05863953 60.12736511 C43.05359775 62.49716128 43.04676452 64.86695431 43.03813171 67.23674011 C43.02605927 70.63477855 43.02034146 74.03277601 43.01591492 77.43083191 C43.01075363 78.49748581 43.00559235 79.56413971 43.00027466 80.66311646 C43.00019913 81.64405777 43.0001236 82.62499908 43.00004578 83.63566589 C42.99782516 84.50392502 42.99560455 85.37218414 42.99331665 86.26675415 C42.89402449 88.24867497 42.89402449 88.24867497 44.11357117 89.24723816 C55.2708589 89.96086542 67.60598345 90.37517309 76.67607117 82.93473816 C82.16096697 77.52949852 83.8538761 72.07774035 84.36357117 64.55973816 C84.22066811 56.98587591 82.04096381 50.18788176 76.78935242 44.64958191 C71.5606367 40.27403659 64.90825934 39.10662727 58.25028992 39.14958191 C57.36405945 39.15280457 56.47782898 39.15602722 55.56474304 39.15934753 C54.19672546 39.17191589 54.19672546 39.17191589 52.80107117 39.18473816 C51.86972351 39.18924988 50.93837585 39.1937616 49.97880554 39.19841003 C47.69032744 39.21014582 45.40198309 39.22656453 43.11357117 39.24723816 Z " fill="#F39F32" transform="translate(194.8864288330078,7.7527618408203125)"/>
<path d="M0 0 C1.4387146 -0.00422974 1.4387146 -0.00422974 2.90649414 -0.00854492 C3.96731201 -0.00652069 5.02812988 -0.00449646 6.12109375 -0.00241089 C7.23154053 -0.00416321 8.3419873 -0.00591553 9.48608398 -0.00772095 C13.17693621 -0.01214208 16.86774099 -0.00920055 20.55859375 -0.00582886 C23.11067718 -0.00650182 25.66276054 -0.00747178 28.21484375 -0.00872803 C33.57162137 -0.01020536 38.9283818 -0.00814391 44.28515625 -0.00338745 C50.4864309 0.00205514 56.68767268 0.00029247 62.88894653 -0.00521386 C68.8439359 -0.01029073 74.79891502 -0.00976343 80.75390625 -0.00683212 C83.2929688 -0.00616259 85.83203217 -0.00699218 88.37109375 -0.00931168 C91.91278339 -0.01183666 95.45440892 -0.00799978 98.99609375 -0.00241089 C100.05691162 -0.00443512 101.11772949 -0.00645935 102.21069336 -0.00854492 C103.16983643 -0.0057251 104.12897949 -0.00290527 105.1171875 0 C105.95564209 0.00037703 106.79409668 0.00075405 107.65795898 0.0011425 C109.55859375 0.12698364 109.55859375 0.12698364 110.55859375 1.12698364 C110.68452573 4.06062638 110.74727441 6.96944043 110.76171875 9.90432739 C110.76741882 10.78601089 110.7731189 11.6676944 110.7789917 12.57609558 C110.7884558 14.44485264 110.79498126 16.3136265 110.79882812 18.18240356 C110.80854125 21.04899012 110.83955403 23.91486222 110.87109375 26.78128052 C110.87762267 28.5931252 110.88287358 30.40497503 110.88671875 32.21682739 C110.89906555 33.07831894 110.91141235 33.93981049 110.9241333 34.82740784 C110.91503906 37.243927 110.91503906 37.243927 110.55859375 41.12698364 C106.99305415 43.50401004 105.47988014 43.37039287 101.2512207 43.35403442 C99.29953728 43.35380783 99.29953728 43.35380783 97.3084259 43.35357666 C95.88790738 43.34336334 94.46739042 43.33293134 93.046875 43.32229614 C91.59384862 43.31856547 90.14081972 43.31571876 88.68778992 43.3137207 C84.86547893 43.30608846 81.04332021 43.28644356 77.22106934 43.26431274 C72.63389991 43.24024625 68.04667954 43.23107138 63.45946503 43.21940613 C56.49240208 43.20001882 49.52567313 43.1616937 42.55859375 43.12698364 C42.55859375 55.00698364 42.55859375 66.88698364 42.55859375 79.12698364 C49.34550781 79.09217896 49.34550781 79.09217896 56.26953125 79.05667114 C59.13151613 79.04645521 61.99347862 79.03682753 64.85546875 79.02932739 C69.40076348 79.01735968 73.94597784 79.00318366 78.49121094 78.97610474 C82.15460721 78.95441543 85.81791732 78.94242333 89.48137283 78.93722916 C90.88085919 78.93352633 92.2803407 78.92629587 93.6797905 78.91552353 C95.63592706 78.90106139 97.59214984 78.90016717 99.54833984 78.89993286 C101.22046036 78.89327103 101.22046036 78.89327103 102.92636108 78.88647461 C105.55859375 79.12698364 105.55859375 79.12698364 107.55859375 81.12698364 C107.74635542 84.12833977 107.81409557 87.0358551 107.7890625 90.03713989 C107.78860428 90.91978012 107.78814606 91.80242035 107.78767395 92.71180725 C107.78465062 94.57881005 107.77676192 96.44581031 107.7644043 98.31277466 C107.74614601 101.18127303 107.74389459 104.04944886 107.74414062 106.91799927 C107.73922563 108.72854895 107.73339739 110.53909644 107.7265625 112.34963989 C107.72544968 113.21315567 107.72433685 114.07667145 107.72319031 114.96635437 C107.6746399 121.01093749 107.6746399 121.01093749 106.55859375 122.12698364 C104.56427645 122.22103506 102.56659832 122.24441614 100.57006836 122.24050903 C99.28881577 122.2404335 98.00756317 122.24035797 96.68748474 122.24028015 C95.27863527 122.23517274 93.86978619 122.22995673 92.4609375 122.22463989 C91.02747141 122.22277566 89.59400468 122.22135178 88.16053772 122.22035217 C84.38099418 122.21652736 80.60148885 122.20669741 76.82196045 122.19564819 C72.29071594 122.18363844 67.75945868 122.17903165 63.22820282 122.17319489 C56.33830653 122.16348562 49.44849413 122.14432885 42.55859375 122.12698364 C42.55859375 134.00698364 42.55859375 145.88698364 42.55859375 158.12698364 C46.5840403 158.93207295 49.65933293 159.23999272 53.6940918 159.20877075 C54.90852463 159.20223984 56.12295746 159.19570892 57.37419128 159.1889801 C58.67641129 159.17754471 59.97863129 159.16610931 61.3203125 159.15432739 C62.67600659 159.14737822 64.03170466 159.14116884 65.3874054 159.13566589 C71.13180061 159.11126785 76.8760872 159.07548478 82.62036133 159.03103638 C86.14037689 159.00430029 89.66033146 158.98723011 93.18042946 158.97616768 C95.17361353 158.96692798 97.1667358 158.94654553 99.15983582 158.92604065 C100.96730034 158.92097252 100.96730034 158.92097252 102.8112793 158.915802 C104.4074836 158.90461586 104.4074836 158.90461586 106.03593445 158.89320374 C108.55859375 159.12698364 108.55859375 159.12698364 110.55859375 161.12698364 C110.81667196 163.78889754 110.95635599 166.35397931 111.0078125 169.02151489 C111.02955032 169.80588425 111.05128815 170.5902536 111.07368469 171.39839172 C111.11763639 173.06016639 111.15682833 174.72207268 111.19165039 176.38406372 C111.24566276 178.91925401 111.31592737 181.45359725 111.38867188 183.98831177 C111.42935593 185.60352199 111.46909985 187.21875622 111.5078125 188.83401489 C111.53895393 189.96707817 111.53895393 189.96707817 111.57072449 191.12303162 C111.64401541 194.95880637 111.37997126 198.38943712 110.55859375 202.12698364 C95.58173069 202.15031342 80.60486903 202.1679632 65.62799168 202.17879581 C58.67443294 202.18395861 51.72088548 202.19100098 44.76733398 202.2024231 C38.06302166 202.21343058 31.3587235 202.21925985 24.65440178 202.22186089 C22.09021762 202.22371567 19.52603413 202.22733728 16.96185493 202.2327137 C13.38414217 202.23992023 9.80647856 202.24097475 6.22875977 202.24050903 C5.15702011 202.24410431 4.08528046 202.24769958 2.98106384 202.25140381 C2.01206146 202.25002914 1.04305908 202.24865448 0.04469299 202.24723816 C-1.22599864 202.24862085 -1.22599864 202.24862085 -2.5223608 202.25003147 C-4.44140625 202.12698364 -4.44140625 202.12698364 -5.44140625 201.12698364 C-5.54140082 198.549486 -5.57581426 195.99871871 -5.56838989 193.42068481 C-5.56994988 192.60382548 -5.57150987 191.78696615 -5.57311714 190.94535351 C-5.57713057 188.18686854 -5.57393618 185.42843785 -5.57080078 182.66995239 C-5.57215467 180.70100878 -5.57393453 178.73206543 -5.57611084 176.76312256 C-5.58068665 171.39964304 -5.57889501 166.03618266 -5.57573175 160.67270279 C-5.57320891 155.07307125 -5.57554548 149.47344141 -5.57711792 143.87380981 C-5.57893984 134.46828923 -5.57653273 125.06277648 -5.57177734 115.65725708 C-5.56633468 104.76627188 -5.56809732 93.87530539 -5.57360375 82.98432064 C-5.57813425 73.6518764 -5.57878574 64.31943782 -5.57616508 54.98699284 C-5.57460196 49.4051031 -5.5744095 43.82322218 -5.57770157 38.24133301 C-5.58057937 32.99490859 -5.57860628 27.74850842 -5.57280731 22.50208664 C-5.57147922 20.57066259 -5.57187465 18.63923652 -5.57406998 16.70781326 C-5.57677957 14.08294162 -5.57340271 11.458149 -5.56838989 8.83328247 C-5.57062061 8.05868777 -5.57285134 7.28409307 -5.57514966 6.48602581 C-5.55092886 0.00249607 -5.55092886 0.00249607 0 0 Z " fill="#F89236" transform="translate(369.44140625,7.873016357421875)"/>
<path d="M0 0 C1.54389861 0.00081715 1.54389861 0.00081715 3.11898708 0.00165081 C4.88791569 -0.00464092 4.88791569 -0.00464092 6.69258022 -0.01105976 C7.99292202 -0.00544025 9.29326382 0.00017925 10.63300991 0.00596905 C12.01097612 0.00489657 13.38894189 0.00295839 14.76690578 0.00021648 C18.5147132 -0.00464001 22.26240195 0.00303345 26.01019502 0.01316953 C29.92551657 0.02193548 33.84083424 0.02019288 37.7561636 0.01980877 C44.33101806 0.02074598 50.90582643 0.02943814 57.48066616 0.04307842 C65.0923987 0.05881107 72.70408076 0.06407634 80.31582838 0.06334287 C87.62648762 0.06273345 94.93713034 0.06783061 102.24778461 0.07613468 C105.3646034 0.07967377 108.48141634 0.08149882 111.59823704 0.08202839 C115.26469121 0.08302973 118.93110267 0.08910917 122.59754276 0.09919453 C124.59285069 0.10352956 126.58816737 0.10294632 128.58347988 0.10225201 C129.75994579 0.10651699 130.93641171 0.11078197 132.1485281 0.1151762 C133.69186117 0.11768997 133.69186117 0.11768997 135.26637268 0.12025452 C137.57026577 0.24888897 137.57026577 0.24888897 138.57026577 1.24888897 C138.6713693 4.19424467 138.70995856 7.11566457 138.70307827 10.06138897 C138.704035 10.94544415 138.70499172 11.82949932 138.70597744 12.74034405 C138.70665928 14.61331026 138.7048047 16.48627883 138.70063686 18.35924053 C138.69528866 21.23657284 138.7005817 24.11374905 138.70698452 26.99107647 C138.70632374 28.80618098 138.70504258 30.6212854 138.70307827 32.43638897 C138.7051025 33.3030418 138.70712673 34.16969463 138.7092123 35.06260967 C138.68521586 41.13393888 138.68521586 41.13393888 137.57026577 42.24888897 C136.1273679 42.34184712 134.67996792 42.3663541 133.23408413 42.36241436 C132.31320507 42.36233883 131.39232601 42.3622633 130.44354153 42.36218548 C129.44250896 42.35702419 128.4414764 42.35186291 127.41010952 42.34654522 C126.3905064 42.34513027 125.37090328 42.34371532 124.3204031 42.3422575 C121.0494947 42.33663994 117.77865364 42.32408447 114.50776577 42.31138897 C112.29617821 42.30637623 110.08458959 42.30181293 107.87300014 42.29771709 C102.4387322 42.2866648 97.00450379 42.2699096 91.57026577 42.24888897 C91.56603383 43.06741061 91.56180189 43.88593225 91.55744171 44.72925758 C91.4542811 64.61625624 91.34566556 84.50321853 91.23092651 104.39015388 C91.17557283 114.00719691 91.12208737 123.62424364 91.07295132 133.24132061 C91.03013569 141.62042397 90.98386443 149.99949977 90.93338722 158.3785606 C90.90676508 162.81803404 90.88191157 167.25750194 90.86119175 171.69700718 C90.84165808 175.87068849 90.81752432 180.04431725 90.78977489 184.21795177 C90.78038707 185.75428917 90.77271806 187.29063813 90.76684666 188.82699299 C90.75861473 190.91551342 90.74434666 193.00390528 90.72848415 195.09237957 C90.7220316 196.26397845 90.71557905 197.43557734 90.70893097 198.64267921 C90.57026577 201.24888897 90.57026577 201.24888897 89.57026577 202.24888897 C88.16351357 202.34693748 86.75191441 202.37687083 85.34175014 202.3782835 C83.99530422 202.38301174 83.99530422 202.38301174 82.62165737 202.3878355 C81.64563564 202.38581127 80.66961391 202.38378704 79.66401577 202.38170147 C78.17146267 202.38313656 78.17146267 202.38313656 76.64875698 202.38460064 C74.54039859 202.38528257 72.43203812 202.3834274 70.32368374 202.37926006 C67.0842155 202.373912 63.84488592 202.37920464 60.60542202 202.38560772 C58.56245296 202.38494694 56.51948399 202.38366578 54.47651577 202.38170147 C53.50049404 202.3837257 52.52447231 202.38574993 51.51887417 202.3878355 C50.62124355 202.38468334 49.72361294 202.38153118 48.79878139 202.3782835 C47.60750637 202.37709011 47.60750637 202.37709011 46.39216518 202.37587261 C44.57026577 202.24888897 44.57026577 202.24888897 43.57026577 201.24888897 C43.46121739 199.21160841 43.42335472 197.17050906 43.41204739 195.13034344 C43.40710941 194.48428774 43.40217143 193.83823204 43.39708382 193.1725989 C43.38163791 190.9922211 43.37332916 188.8118729 43.3649435 186.63145733 C43.35537054 185.07467669 43.34536081 183.51789869 43.33494473 181.96112347 C43.30782651 177.72166524 43.28685453 173.48219581 43.26694274 169.24269843 C43.24512569 164.81705238 43.21771613 160.39144116 43.1908865 155.96582317 C43.14090153 147.57937444 43.09598431 139.19290644 43.05286413 130.80641991 C43.00354125 121.26121075 42.94860483 111.71603653 42.89318454 102.17086112 C42.77927544 82.53023626 42.67245594 62.88957807 42.57026577 43.24888897 C40.59449551 43.26459942 40.59449551 43.26459942 38.57881069 43.28062725 C33.6979789 43.3167918 28.81715898 43.33977656 23.93623257 43.35875225 C21.82260555 43.36881791 19.70899247 43.38247153 17.59541225 43.39976788 C14.55965135 43.42399127 11.52407434 43.43536635 8.48823452 43.44420147 C7.06779087 43.45968533 7.06779087 43.45968533 5.61865139 43.47548199 C4.7379649 43.47563305 3.8572784 43.47578411 2.94990444 43.47593975 C2.174911 43.48038097 1.39991756 43.4848222 0.60143948 43.489398 C-1.42973423 43.24888897 -1.42973423 43.24888897 -4.42973423 41.24888897 C-4.72125445 38.29277838 -4.82557062 35.54947852 -4.79301548 32.59263897 C-4.79351398 31.73456646 -4.79401249 30.87649395 -4.7945261 29.99241924 C-4.79218368 28.17668119 -4.78244525 26.36094001 -4.76591587 24.54527569 C-4.74232822 21.75998802 -4.7453528 18.97565731 -4.75199986 16.19029522 C-4.74642313 14.42857074 -4.73931329 12.66685031 -4.73051548 10.90513897 C-4.73142689 10.06865826 -4.73233829 9.23217754 -4.73327732 8.37034893 C-4.6360682 0.47489401 -4.6360682 0.47489401 0 0 Z " fill="#C2672F" transform="translate(989.4297342300415,7.751111030578613)"/>
<path d="M0 0 C0.79196274 0.00142502 1.58392548 0.00285004 2.39988708 0.00431824 C3.74621971 -0.00029671 3.74621971 -0.00029671 5.11975098 -0.00500488 C6.09061142 0.00218063 7.06147186 0.00936615 8.06175232 0.01676941 C9.05537277 0.01722763 10.04899323 0.01768585 11.07272339 0.01815796 C13.17511691 0.02118206 15.27750816 0.02907306 17.37986755 0.04142761 C20.61049776 0.05968251 23.84084156 0.06193736 27.07151794 0.06169128 C29.1099319 0.06660636 31.1483439 0.07243463 33.18675232 0.07926941 C34.15963699 0.08038223 35.13252167 0.08149506 36.1348877 0.0826416 C37.02929062 0.08902145 37.92369354 0.09540131 38.84519958 0.10197449 C39.63636673 0.10578629 40.42753387 0.10959808 41.24267578 0.11352539 C43.05784607 0.24723816 43.05784607 0.24723816 44.05784607 1.24723816 C44.16004918 3.80982942 44.19671378 6.34562029 44.19155884 8.90884399 C44.19382439 9.72091421 44.19608995 10.53298442 44.19842416 11.36966282 C44.20479369 14.11199049 44.20393292 16.85426911 44.20310974 19.59660339 C44.20609939 21.55407272 44.20950146 23.51154145 44.21328735 25.4690094 C44.2221512 30.80156218 44.22446646 36.13409892 44.22510314 41.46665835 C44.22605021 45.91028866 44.22972616 50.3539152 44.23327523 54.79754406 C44.24142881 65.27662697 44.24385864 75.75570128 44.2431488 86.23478699 C44.24254772 97.0632826 44.25310355 107.89172844 44.26889247 118.72021145 C44.2819449 128.00086784 44.28733367 137.28150792 44.28669339 146.56217343 C44.28643773 152.1122516 44.28932615 157.66228558 44.29987144 163.21235466 C44.30951392 168.43007403 44.30965824 173.64770659 44.30235481 178.86542892 C44.30130416 180.78514672 44.30370007 182.70486981 44.30971527 184.62457848 C44.31737071 187.23603913 44.31283361 189.84719514 44.30508423 192.45864868 C44.31022779 193.22643959 44.31537135 193.9942305 44.32067078 194.7852878 C44.28611729 200.01896694 44.28611729 200.01896694 42.05784607 202.24723816 C40.11569214 202.49447632 40.11569214 202.49447632 37.71580505 202.49015808 C36.81824997 202.49323471 35.92069489 202.49631134 34.99594116 202.4994812 C34.02508072 202.49229568 33.05422028 202.48511017 32.05393982 202.47770691 C31.06031937 202.47724869 30.06669891 202.47679047 29.04296875 202.47631836 C26.94057523 202.47329425 24.83818398 202.46540326 22.73582458 202.45304871 C19.50519438 202.43479381 16.27485058 202.43253896 13.04417419 202.43278503 C11.00576024 202.42786996 8.96734824 202.42204169 6.92893982 202.41520691 C5.95605515 202.41409409 4.98317047 202.41298126 3.98080444 202.41183472 C3.08640152 202.40545486 2.1919986 202.39907501 1.27049255 202.39250183 C0.47932541 202.38869003 -0.31184174 202.38487823 -1.12698364 202.38095093 C-2.94215393 202.24723816 -2.94215393 202.24723816 -3.94215393 201.24723816 C-4.04435704 198.6846469 -4.08102164 196.14885602 -4.0758667 193.58563232 C-4.07813226 192.77356211 -4.08039781 191.9614919 -4.08273202 191.1248135 C-4.08910155 188.38248583 -4.08824078 185.64020721 -4.0874176 182.89787292 C-4.09040725 180.9404036 -4.09380932 178.98293487 -4.09759521 177.02546692 C-4.10645906 171.69291414 -4.10877432 166.36037739 -4.109411 161.02781796 C-4.11035807 156.58418765 -4.11403402 152.14056112 -4.1175831 147.69693226 C-4.12573667 137.21784935 -4.1281665 126.73877504 -4.12745667 116.25968933 C-4.12685558 105.43119372 -4.13741141 94.60274788 -4.15320033 83.77426487 C-4.16625276 74.49360848 -4.17164153 65.2129684 -4.17100126 55.93230289 C-4.1707456 50.38222472 -4.17363402 44.83219074 -4.18417931 39.28212166 C-4.19382179 34.06440229 -4.1939661 28.84676972 -4.18666267 23.62904739 C-4.18561202 21.7093296 -4.18800793 19.7896065 -4.19402313 17.86989784 C-4.20167857 15.25843719 -4.19714148 12.64728118 -4.18939209 10.03582764 C-4.19453565 9.26803673 -4.19967922 8.50024582 -4.20497864 7.70918852 C-4.15757576 0.5292636 -4.15757576 0.5292636 0 0 Z " fill="#D06E31" transform="translate(926.9421539306641,7.7527618408203125)"/>
<path d="M0 0 C0.78375 0.04125 1.5675 0.0825 2.375 0.125 C2.045 0.785 1.715 1.445 1.375 2.125 C0.385 2.455 -0.605 2.785 -1.625 3.125 C-1.955 15.665 -2.285 28.205 -2.625 41.125 C0.68402344 41.11339844 3.99304688 41.10179687 7.40234375 41.08984375 C10.59269108 41.08205419 13.78303737 41.07597686 16.97338867 41.07006836 C19.19767732 41.06502683 21.42196263 41.05819377 23.64624023 41.04956055 C26.83578309 41.03748702 30.02528229 41.03177004 33.21484375 41.02734375 C34.71639259 41.01960182 34.71639259 41.01960182 36.24827576 41.01170349 C37.16915482 41.01162796 38.09003387 41.01155243 39.03881836 41.01147461 C40.26126503 41.00814369 40.26126503 41.00814369 41.50840759 41.00474548 C43.375 41.125 43.375 41.125 44.375 42.125 C44.47178239 44.16261187 44.49686965 46.20363712 44.49525452 48.24354553 C44.49610894 48.88960123 44.49696337 49.53565693 44.49784368 50.20129007 C44.49950024 52.38169817 44.49397429 54.56203055 44.48852539 56.74243164 C44.48824353 58.29920958 44.48840123 59.85598764 44.4889679 61.4127655 C44.48925592 65.65225204 44.48335846 69.89171054 44.47639394 74.13119054 C44.47016115 78.5568142 44.46955666 82.98243843 44.46836853 87.4080658 C44.46525499 95.79453978 44.4570413 104.1810008 44.44701904 112.56746906 C44.4358586 122.11265349 44.43034763 131.65783852 44.42532361 141.20302784 C44.4148587 160.84369409 44.39651295 180.48434254 44.375 200.125 C59.225 200.125 74.075 200.125 89.375 200.125 C89.375 147.655 89.375 95.185 89.375 41.125 C104.885 41.125 120.395 41.125 136.375 41.125 C136.375 28.255 136.375 15.385 136.375 2.125 C132.085 2.125 127.795 2.125 123.375 2.125 C123.375 1.465 123.375 0.805 123.375 0.125 C125.68743792 0.09814588 127.9999627 0.07867159 130.3125 0.0625 C131.60027344 0.05089844 132.88804687 0.03929687 134.21484375 0.02734375 C137.375 0.125 137.375 0.125 138.375 1.125 C138.47610353 4.0703557 138.51469279 6.9917756 138.5078125 9.9375 C138.50876923 10.82155518 138.50972595 11.70561035 138.51071167 12.61645508 C138.51139351 14.48942129 138.50953893 16.36238986 138.50537109 18.23535156 C138.50002289 21.11268388 138.50531593 23.98986008 138.51171875 26.8671875 C138.51105797 28.68229201 138.50977681 30.49739643 138.5078125 32.3125 C138.50983673 33.17915283 138.51186096 34.04580566 138.51394653 34.9387207 C138.48995009 41.01004991 138.48995009 41.01004991 137.375 42.125 C135.93210213 42.21795815 134.48470215 42.24246513 133.03881836 42.23852539 C132.1179393 42.23844986 131.19706024 42.23837433 130.24827576 42.23829651 C129.24724319 42.23313522 128.24621063 42.22797394 127.21484375 42.22265625 C126.19524063 42.2212413 125.17563751 42.21982635 124.12513733 42.21836853 C120.85422893 42.21275097 117.58338787 42.2001955 114.3125 42.1875 C112.10091244 42.18248726 109.88932382 42.17792396 107.67773438 42.17382812 C102.24346643 42.16277584 96.80923803 42.14602063 91.375 42.125 C91.37076806 42.94352164 91.36653612 43.76204329 91.36217594 44.60536861 C91.25901533 64.49236727 91.15039979 84.37932956 91.03566074 104.26626492 C90.98030706 113.88330794 90.9268216 123.50035467 90.87768555 133.11743164 C90.83486992 141.496535 90.78859866 149.8756108 90.73812145 158.25467163 C90.71149931 162.69414507 90.6866458 167.13361297 90.66592598 171.57311821 C90.64639231 175.74679952 90.62225855 179.92042828 90.59450912 184.09406281 C90.5851213 185.6304002 90.57745229 187.16674916 90.57158089 188.70310402 C90.56334896 190.79162445 90.54908089 192.88001631 90.53321838 194.9684906 C90.52676583 196.14008948 90.52031328 197.31168837 90.5136652 198.51879025 C90.375 201.125 90.375 201.125 89.375 202.125 C87.9682478 202.22304851 86.55664864 202.25298186 85.14648438 202.25439453 C83.80003845 202.25912277 83.80003845 202.25912277 82.4263916 202.26394653 C81.45036987 202.2619223 80.47434814 202.25989807 79.46875 202.2578125 C77.9761969 202.25924759 77.9761969 202.25924759 76.45349121 202.26071167 C74.34513282 202.2613936 72.23677235 202.25953844 70.12841797 202.25537109 C66.88894973 202.25002303 63.64962015 202.25531567 60.41015625 202.26171875 C58.36718719 202.26105797 56.32421822 202.25977681 54.28125 202.2578125 C53.30522827 202.25983673 52.32920654 202.26186096 51.3236084 202.26394653 C50.42597778 202.26079437 49.52834717 202.25764221 48.60351562 202.25439453 C47.4122406 202.25320114 47.4122406 202.25320114 46.19689941 202.25198364 C44.375 202.125 44.375 202.125 43.375 201.125 C43.26595162 199.08771945 43.22808895 197.04662009 43.21678162 195.00645447 C43.21184364 194.36039877 43.20690566 193.71434307 43.20181805 193.04870993 C43.18637214 190.86833213 43.17806339 188.68798393 43.16967773 186.50756836 C43.16010477 184.95078772 43.15009504 183.39400972 43.13967896 181.8372345 C43.11256074 177.59777627 43.09158876 173.35830684 43.07167697 169.11880946 C43.04985992 164.69316341 43.02245036 160.26755219 42.99562073 155.8419342 C42.94563576 147.45548547 42.90071854 139.06901747 42.85759836 130.68253094 C42.80827548 121.13732178 42.75333906 111.59214756 42.69791877 102.04697216 C42.58400967 82.40634729 42.47719017 62.7656891 42.375 43.125 C40.39922974 43.14071045 40.39922974 43.14071045 38.38354492 43.15673828 C33.50271313 43.19290283 28.62189321 43.21588759 23.7409668 43.23486328 C21.62733978 43.24492894 19.5137267 43.25858257 17.40014648 43.27587891 C14.36438558 43.3001023 11.32880857 43.31147738 8.29296875 43.3203125 C6.8725251 43.33579636 6.8725251 43.33579636 5.42338562 43.35159302 C4.54269913 43.35174408 3.66201263 43.35189514 2.75463867 43.35205078 C1.97964523 43.356492 1.20465179 43.36093323 0.40617371 43.36550903 C-1.625 43.125 -1.625 43.125 -4.625 41.125 C-4.91652022 38.16888941 -5.02083639 35.42558955 -4.98828125 32.46875 C-4.98877975 31.61067749 -4.98927826 30.75260498 -4.98979187 29.86853027 C-4.98744945 28.05279222 -4.97771102 26.23705104 -4.96118164 24.42138672 C-4.93759399 21.63609905 -4.94061857 18.85176834 -4.94726562 16.06640625 C-4.9416889 14.30468177 -4.93457905 12.54296134 -4.92578125 10.78125 C-4.92669266 9.94476929 -4.92760406 9.10828857 -4.92854309 8.24645996 C-4.82984406 0.22999257 -4.82984406 0.22999257 0 0 Z " fill="#BE5E20" transform="translate(989.625,7.875)"/>
<path d="M0 0 C1.47906892 -0.02689216 2.95827483 -0.04634621 4.4375 -0.0625 C5.26121094 -0.07410156 6.08492187 -0.08570313 6.93359375 -0.09765625 C9 0 9 0 10 1 C10.09777019 3.56718197 10.12995016 6.10743916 10.12025452 8.67506409 C10.12110894 9.48854543 10.12196337 10.30202678 10.12284368 11.14015907 C10.12450097 13.88716241 10.11897306 16.63410573 10.11352539 19.38110352 C10.11324355 21.34181721 10.1134012 23.302531 10.1139679 25.26324463 C10.11425598 30.60393334 10.10835752 35.94459981 10.10139394 41.28528333 C10.09516218 46.86002316 10.09455674 52.43476345 10.09336853 58.00950623 C10.09025469 68.57406091 10.08204059 79.13860531 10.07201904 89.70315546 C10.06085955 101.7271323 10.05534787 113.75110961 10.05032361 125.77509034 C10.03985801 150.51673261 10.02225755 175.25836573 10 200 C7.50095132 197.50095132 7.76160758 196.02135263 7.74183738 192.61190689 C7.74766307 191.8551067 7.75348875 191.09830652 7.75949097 190.318573 C7.75692769 189.11544533 7.75692769 189.11544533 7.75431263 187.88801205 C7.75100389 185.18550596 7.76204408 182.48324514 7.77294922 179.78076172 C7.77351303 177.84945685 7.77319735 175.91815155 7.77206421 173.98684692 C7.77148854 168.73089737 7.78327747 163.47503844 7.79721212 158.21911001 C7.80968383 152.73113046 7.81088716 147.24314901 7.81326294 141.75515747 C7.8194882 131.35707596 7.83591314 120.95903633 7.85596192 110.56097329 C7.87828842 98.72560775 7.88930616 86.89024026 7.89935279 75.05485892 C7.92027848 50.70321603 7.95547474 26.35161036 8 2 C5.36 2 2.72 2 0 2 C0 1.34 0 0.68 0 0 Z " fill="#C76222" transform="translate(961,8)"/>
<path d="M0 0 C2.31243792 -0.02685412 4.6249627 -0.04632841 6.9375 -0.0625 C8.22527344 -0.07410156 9.51304688 -0.08570313 10.83984375 -0.09765625 C14 0 14 0 15 1 C15.10110353 3.9453557 15.13969279 6.8667756 15.1328125 9.8125 C15.13376923 10.69655518 15.13472595 11.58061035 15.13571167 12.49145508 C15.13639351 14.36442129 15.13453893 16.23738986 15.13037109 18.11035156 C15.12502289 20.98768388 15.13031593 23.86486008 15.13671875 26.7421875 C15.13605797 28.55729201 15.13477681 30.37239643 15.1328125 32.1875 C15.13483673 33.05415283 15.13686096 33.92080566 15.13894653 34.8137207 C15.11495009 40.88504991 15.11495009 40.88504991 14 42 C-1.18 42 -16.36 42 -32 42 C-32.33 94.47 -32.66 146.94 -33 201 C-33.33 201 -33.66 201 -34 201 C-34 148.2 -34 95.4 -34 41 C-18.49 41 -2.98 41 13 41 C13 28.13 13 15.26 13 2 C8.71 2 4.42 2 0 2 C0 1.34 0 0.68 0 0 Z " fill="#B6591D" transform="translate(1113,8)"/>
<path d="M0 0 C2 2 2 2 2.24609566 4.47937965 C2.24425207 5.53206724 2.24240849 6.58475483 2.24050903 7.66934204 C2.24325836 8.8753154 2.24600769 10.08128876 2.24884033 11.32380676 C2.24176161 12.6672068 2.23449198 14.01060583 2.22705078 15.35400391 C2.22648687 16.76314791 2.22680283 18.1722925 2.22793579 19.58143616 C2.2285111 23.41389128 2.21672803 27.24622196 2.20278788 31.07864809 C2.19031018 35.08118342 2.18911236 39.08372141 2.18673706 43.08627319 C2.18051356 50.66879279 2.16409102 58.25125492 2.14403808 65.83374918 C2.12170609 74.46482036 2.11069246 83.09589425 2.10064721 91.72698712 C2.07972552 109.4846907 2.0445327 127.24234073 2 145 C3.98 145.66 5.96 146.32 8 147 C8 147.33 8 147.66 8 148 C4.625 148.125 4.625 148.125 1 148 C-1 146 -1 146 -1.23047829 143.47376823 C-1.22126036 142.39895761 -1.21204243 141.324147 -1.20254517 140.21676636 C-1.19688034 138.98555054 -1.19121552 137.75433472 -1.18537903 136.48580933 C-1.16885634 135.11407246 -1.15214148 133.74233789 -1.13525391 132.37060547 C-1.12483207 130.93191111 -1.11529605 129.49321011 -1.10658264 128.05450439 C-1.08035993 124.14141193 -1.04169498 120.22852822 -1.00085878 116.31556463 C-0.96030604 112.22899675 -0.93110872 108.14234845 -0.90072632 104.05569458 C-0.84143298 96.3137481 -0.77187156 88.571929 -0.69865549 80.83010304 C-0.61581225 72.01771102 -0.54436336 63.20523828 -0.47388959 54.39274001 C-0.32863903 36.26170722 -0.1690207 18.13082599 0 0 Z " fill="#EAB120" transform="translate(12,62)"/>
<path d="M0 0 C0.66 0 1.32 0 2 0 C2.06058594 0.83144531 2.12117187 1.66289062 2.18359375 2.51953125 C2.26738281 3.60621094 2.35117187 4.69289062 2.4375 5.8125 C2.55931641 7.43091797 2.55931641 7.43091797 2.68359375 9.08203125 C2.90212461 12.05989905 2.90212461 12.05989905 4 15 C18.19 15.33 32.38 15.66 47 16 C47 11.38 47 6.76 47 2 C47.33 2 47.66 2 48 2 C48.495 9.425 48.495 9.425 49 17 C46.68579271 18.15710365 45.34114904 18.13253337 42.765625 18.14526367 C41.45416504 18.15483345 41.45416504 18.15483345 40.11621094 18.16459656 C39.17036133 18.16570938 38.22451172 18.1668222 37.25 18.16796875 C36.28094727 18.17129715 35.31189453 18.17462555 34.31347656 18.17805481 C32.26237463 18.1831227 30.21126444 18.18546318 28.16015625 18.18530273 C25.01288371 18.18749104 21.86596055 18.20565324 18.71875 18.22460938 C16.72916787 18.22754289 14.73958407 18.22952797 12.75 18.23046875 C11.33122559 18.24124702 11.33122559 18.24124702 9.88378906 18.25224304 C9.00948242 18.24916641 8.13517578 18.24608978 7.234375 18.24291992 C6.07760254 18.24505745 6.07760254 18.24505745 4.89746094 18.24723816 C3 18 3 18 1 16 C0.6936141 13.26565038 0.4886664 10.61720179 0.375 7.875 C0.33632813 7.12089844 0.29765625 6.36679688 0.2578125 5.58984375 C0.16348969 3.72696816 0.08065338 1.86351745 0 0 Z " fill="#D46927" transform="translate(858,192)"/>
<path d="M0 0 C0.78375 0.04125 1.5675 0.0825 2.375 0.125 C1.72160645 0.57609131 1.06821289 1.02718262 0.39501953 1.49194336 C-2.69851609 5.52430759 -2.0846635 9.3140357 -1.9453125 14.25390625 C-1.93490936 15.23995346 -1.92450623 16.22600067 -1.91378784 17.2419281 C-1.87817248 20.39105252 -1.81583164 23.53887353 -1.75 26.6875 C-1.69477215 29.83956941 -1.64535804 32.99145485 -1.6076355 36.14378357 C-1.58311514 38.10494073 -1.54790079 40.0659989 -1.50100708 42.02674866 C-1.48794525 42.91454514 -1.47488342 43.80234161 -1.46142578 44.71704102 C-1.44491974 45.49773453 -1.4284137 46.27842804 -1.41140747 47.08277893 C-1.625 49.125 -1.625 49.125 -3.625 52.125 C-4.37320358 40.76833844 -4.75066257 29.42022753 -4.80224609 18.03961182 C-4.80908459 16.67936087 -4.81934115 15.31912282 -4.83300781 13.95892334 C-4.85085792 12.03257954 -4.85347633 10.10611297 -4.85546875 8.1796875 C-4.85957764 7.06062012 -4.86368652 5.94155273 -4.86791992 4.78857422 C-4.53285863 1.11468608 -3.71129156 0.17672817 0 0 Z " fill="#EDB01E" transform="translate(15.625,7.875)"/>
<path d="M0 0 C1.04659564 7.36977761 1.33911951 14.69774274 1.60546875 22.13085938 C1.64285156 23.07123047 1.68023438 24.01160156 1.71875 24.98046875 C1.74904297 25.82504639 1.77933594 26.66962402 1.81054688 27.53979492 C2.00706554 30.09175185 2.48603365 32.4951525 3 35 C3.0659735 37.10323534 3.08562245 39.20835724 3.0625 41.3125 C3.05347656 42.38113281 3.04445313 43.44976562 3.03515625 44.55078125 C3.02355469 45.35902344 3.01195312 46.16726562 3 47 C0.64376538 43.26106119 0.48943109 39.38793188 0.18359375 35.09375 C0.12220718 34.33203491 0.06082062 33.57031982 -0.00242615 32.78552246 C-0.19694755 30.35755704 -0.3803429 27.92892172 -0.5625 25.5 C-0.74993718 23.07125682 -0.93976615 20.64274375 -1.13328552 18.21447754 C-1.2529916 16.70558841 -1.36892509 15.19639398 -1.48060608 13.68688965 C-1.74314564 10.31504308 -2.17583784 7.29664866 -3 4 C-5.64 11.26 -8.28 18.52 -11 26 C-11.9855536 22.05778562 -12.07168811 21.33841153 -10.85546875 17.77734375 C-10.59056641 16.99166016 -10.32566406 16.20597656 -10.05273438 15.39648438 C-9.76720703 14.58501953 -9.48167969 13.77355469 -9.1875 12.9375 C-8.91357422 12.12216797 -8.63964844 11.30683594 -8.35742188 10.46679688 C-7.14935719 6.9411021 -6.08514489 4.12771733 -4 1 C-1 0 -1 0 0 0 Z " fill="#DA6C26" transform="translate(852,93)"/>
<path d="M0 0 C2 3 2 3 2 8 C16.85 8 31.7 8 47 8 C46.67 8.66 46.34 9.32 46 10 C39.60962769 10.02527062 33.21926817 10.04283317 26.82885742 10.05493164 C24.65307127 10.05997308 22.47728853 10.06680607 20.30151367 10.07543945 C17.18146933 10.08751338 14.06146962 10.09323005 10.94140625 10.09765625 C9.47266808 10.10539818 9.47266808 10.10539818 7.97425842 10.11329651 C7.07340012 10.11337204 6.17254181 10.11344757 5.24438477 10.11352539 C4.04858543 10.11685631 4.04858543 10.11685631 2.82862854 10.12025452 C1 10 1 10 0 9 C-0.07179964 7.48071962 -0.08392007 5.95832518 -0.0625 4.4375 C-0.05347656 3.61121094 -0.04445313 2.78492188 -0.03515625 1.93359375 C-0.02355469 1.29550781 -0.01195312 0.65742188 0 0 Z " fill="#CB6425" transform="translate(923,200)"/>
<path d="M0 0 C2.31243792 -0.02685412 4.6249627 -0.04632841 6.9375 -0.0625 C8.22527344 -0.07410156 9.51304688 -0.08570313 10.83984375 -0.09765625 C14 0 14 0 15 1 C15.08868299 3.95705321 15.11520296 6.89065056 15.09765625 9.84765625 C15.0962413 10.7340831 15.09482635 11.62050995 15.09336853 12.53379822 C15.08775215 15.37673254 15.07519691 18.21958931 15.0625 21.0625 C15.05748711 22.98502491 15.05292384 24.90755104 15.04882812 26.83007812 C15.03777741 31.55341549 15.02050183 36.27669458 15 41 C14.67 41 14.34 41 14 41 C13.67 28.46 13.34 15.92 13 3 C8.71 2.67 4.42 2.34 0 2 C0 1.34 0 0.68 0 0 Z " fill="#B64E17" transform="translate(1113,8)"/>
<path d="M0 0 C0.66 0.33 1.32 0.66 2 1 C1.73445312 1.65226562 1.46890625 2.30453125 1.1953125 2.9765625 C-0.34021422 6.77615052 -1.85155781 10.51974584 -3.0625 14.4375 C-4.03268136 17.08932904 -4.97647879 18.11905752 -7 20 C-5.07443364 13.14381674 -2.7527517 6.56747868 0 0 Z " fill="#E26C2A" transform="translate(806,93)"/>
<path d="M0 0 C0.66 0 1.32 0 2 0 C2.33 1.65 2.66 3.3 3 5 C2.34 5 1.68 5 1 5 C0.67 10.61 0.34 16.22 0 22 C-0.33 22 -0.66 22 -1 22 C-1.09377123 14.58165418 -1.17402193 7.33763707 0 0 Z " fill="#E46D27" transform="translate(739,91)"/>
<path d="M0 0 C0.99 0.33 1.98 0.66 3 1 C3.33 1.99 3.66 2.98 4 4 C3 5 3 5 -0.59765625 5.09765625 C-2.08596867 5.0909822 -3.57426432 5.07902183 -5.0625 5.0625 C-5.82111328 5.05798828 -6.57972656 5.05347656 -7.36132812 5.04882812 C-9.24091871 5.0370068 -11.12046899 5.01907078 -13 5 C-13 4.67 -13 4.34 -13 4 C-12.24074219 3.93941406 -11.48148437 3.87882813 -10.69921875 3.81640625 C-9.70535156 3.73261719 -8.71148437 3.64882812 -7.6875 3.5625 C-6.20830078 3.44068359 -6.20830078 3.44068359 -4.69921875 3.31640625 C-1.90624401 3.08187441 -1.90624401 3.08187441 1 2 C0.67 1.34 0.34 0.68 0 0 Z " fill="#F58C23" transform="translate(353,205)"/>
<path d="M0 0 C0 0.66 0 1.32 0 2 C-1.65 2.33 -3.3 2.66 -5 3 C-5.268125 3.969375 -5.53625 4.93875 -5.8125 5.9375 C-6.204375 6.948125 -6.59625 7.95875 -7 9 C-7.99 9.33 -8.98 9.66 -10 10 C-9.68657358 6.55230934 -9.32465015 4.44059663 -7.25 1.625 C-4.58988985 -0.29619066 -3.20935531 -0.35659503 0 0 Z " fill="#DC702B" transform="translate(846,8)"/>
<path d="M0 0 C1.04449911 3.13349732 0.93423645 3.98968256 0 7 C-1.32 7 -2.64 7 -4 7 C-4 5.35 -4 3.7 -4 2 C-2.68 1.34 -1.36 0.68 0 0 Z " fill="#EE771E" transform="translate(484,203)"/>
<path d="M0 0 C0.66 0 1.32 0 2 0 C-0.89066059 9.59453303 -0.89066059 9.59453303 -4 13 C-4 9.78984826 -3.3931136 8.78622721 -2 6 C-1.65179959 4.33637583 -1.31595508 2.67004829 -1 1 C-0.67 0.67 -0.34 0.34 0 0 Z " fill="#F2A427" transform="translate(164,144)"/>
<path d="M0 0 C0.66 0.33 1.32 0.66 2 1 C2 3.31 2 5.62 2 8 C1.34 8 0.68 8 0 8 C-0.33 9.32 -0.66 10.64 -1 12 C-2.09898702 8.70303895 -1.87124444 7.59505097 -1.0625 4.3125 C-0.86785156 3.50425781 -0.67320312 2.69601563 -0.47265625 1.86328125 C-0.31667969 1.24839844 -0.16070313 0.63351563 0 0 Z " fill="#E87128" transform="translate(685,186)"/>
<path d="M0 0 C1.15006091 3.37299744 0.85199953 5.34853215 -0.3125 8.6875 C-0.57675781 9.47511719 -0.84101562 10.26273438 -1.11328125 11.07421875 C-2 13 -2 13 -4 14 C-3.36843005 8.94744036 -1.86540627 4.70406799 0 0 Z " fill="#E1712C" transform="translate(816,67)"/>
<path d="M0 0 C2 3 2 3 1.875 5 C1 7 1 7 -3 10 C-2.01 6.7 -1.02 3.4 0 0 Z " fill="#E2732B" transform="translate(829,33)"/>
<path d="M0 0 C2.01822917 0.06510417 4.03645833 0.13020833 6.0546875 0.1953125 C6.0546875 0.5253125 6.0546875 0.8553125 6.0546875 1.1953125 C4.415 1.5665625 4.415 1.5665625 2.7421875 1.9453125 C-1.00439659 3.21534101 -2.05126516 3.85287602 -3.9453125 7.1953125 C-4.0703125 4.8203125 -4.0703125 4.8203125 -3.9453125 2.1953125 C-1.9453125 0.1953125 -1.9453125 0.1953125 0 0 Z " fill="#F3A526" transform="translate(193.9453125,7.8046875)"/>
<path d="M0 0 C0.625 1.8125 0.625 1.8125 1 4 C0.01 5.485 0.01 5.485 -1 7 C-1.66 7 -2.32 7 -3 7 C-3.33 5.02 -3.66 3.04 -4 1 C-3.34 1.66 -2.68 2.32 -2 3 C-1.34 2.01 -0.68 1.02 0 0 Z " fill="#DF6E26" transform="translate(797,116)"/>
</svg>
