<svg version="1.1" viewBox="0.0 0.0 163.38845144356955 163.4251968503937" fill="none" stroke="none" stroke-linecap="square" stroke-miterlimit="10" xmlns:xlink="http://www.w3.org/1999/xlink" xmlns="http://www.w3.org/2000/svg"><clipPath id="p.0"><path d="m0 0l163.38846 0l0 163.4252l-163.38846 0l0 -163.4252z" clip-rule="nonzero"/></clipPath><g clip-path="url(#p.0)"><path fill="#000000" fill-opacity="0.0" d="m0 0l163.38846 0l0 163.4252l-163.38846 0z" fill-rule="evenodd"/><path fill="#ff9900" d="m0 47.05694l0 0c0 -25.98883 21.068108 -47.05694 47.05694 -47.05694l69.193214 0l0 0c12.48027 0 24.449387 4.9577703 33.274277 13.782658c8.82489 8.824888 13.782654 20.794003 13.782654 33.27428l0 69.193214c0 25.98883 -21.0681 47.05693 -47.05693 47.05693l-69.193214 0c-25.98883 0 -47.05694 -21.0681 -47.05694 -47.05693z" fill-rule="evenodd"/><path fill="#ffffff" d="m81.66029 31.78977c-1.4176483 0 -2.6462708 0.094509125 -3.685875 0.28352165c-1.015976 0.16539001 -1.8311234 0.41347122 -2.4454346 0.7442436c-0.5906906 0.3071518 -1.0277939 0.6969948 -1.3113251 1.169529c-0.28352356 0.44890976 -0.42529297 0.9568825 -0.42529297 1.5239258l0 38.70071l-34.980366 0c-0.56705856 0 -1.0868607 0.14175415 -1.5594101 0.4252777c-0.4489174 0.28352356 -0.85058594 0.74424744 -1.204998 1.3821716c-0.35440826 0.6379242 -0.63793945 1.4412384 -0.85058594 2.409935c-0.21264648 0.94506073 -0.31896973 2.0555267 -0.31896973 3.3313751c0 1.3467255 0.10632324 2.5044327 0.31896973 3.4731445c0.21264648 0.94506073 0.49617767 1.7365646 0.85058594 2.3744888c0.35441208 0.6379242 0.7560806 1.0986481 1.204998 1.3821716c0.47254944 0.28351593 1.0277939 0.4252777 1.6657333 0.4252777l34.874043 0l0 38.700714c0 0.56703186 0.14176941 1.0513763 0.42529297 1.4530487c0.2835312 0.37802124 0.72063446 0.70880127 1.3113251 0.9923248c0.6143112 0.2835083 1.4294586 0.5197754 2.4454346 0.70880127c1.0396042 0.16537476 2.2682266 0.2480774 3.685875 0.2480774c1.4885254 0 2.7289658 -0.08270264 3.7213135 -0.2480774c0.99235535 -0.18902588 1.7838669 -0.42529297 2.3745575 -0.70880127c0.6143112 -0.28352356 1.0632324 -0.6143036 1.3467636 -0.9923248c0.28352356 -0.40167236 0.42529297 -0.88601685 0.42529297 -1.4530487l0 -38.700714l34.87404 0c0.5670624 0 1.0986786 -0.14176178 1.5948563 -0.4252777c0.49617004 -0.28352356 0.921463 -0.74424744 1.2758789 -1.3821716c0.35440826 -0.6379242 0.63793945 -1.4294281 0.85058594 -2.3744888c0.21264648 -0.96871185 0.31896973 -2.126419 0.31896973 -3.4731445c0 -1.2758484 -0.09451294 -2.3863144 -0.28352356 -3.3313751c-0.16539764 -0.9686966 -0.44892883 -1.7720108 -0.85059357 -2.409935c-0.3780365 -0.6379242 -0.80332947 -1.0986481 -1.2758789 -1.3821716c-0.4489212 -0.28352356 -0.9569092 -0.4252777 -1.5239716 -0.4252777l-34.980362 0l0 -38.70071c0 -0.5670433 -0.14176941 -1.075016 -0.42529297 -1.5239258c-0.2835312 -0.47253418 -0.7324524 -0.86237717 -1.3467636 -1.169529c-0.5906906 -0.3307724 -1.3822021 -0.5788536 -2.3745575 -0.7442436c-0.9923477 -0.18901253 -2.232788 -0.28352165 -3.7213135 -0.28352165z" fill-rule="evenodd"/></g></svg>